ply
format ascii 1.0
comment VCGLIB generated
element vertex 72
property float x
property float y
property float z
element face 112
property list uchar int vertex_indices
end_header
0 0 0 
0 0 0 
0 0 0 
0 0 0 
0 0 0 
0 0 0 
0 0 0 
0 0 0 
0 0 0 
0 0 0 
0 0 0 
0 0 0 
0 0 0 
0 0 0 
0 0 0 
0 0 0 
0 0 0 
0 0 0 
0 0 0 
0 0 0 
0 0 0 
0 0 0 
0 0 0 
0 0 0 
0 0 0 
0 0 0 
0 0 0 
0 0 0 
0 0 0 
0 0 0 
0 0 0 
0 0 0 
0 0 0 
0 0 0 
0 0 0 
0 0 0 
0 0 0 
0 0 0 
0 0 0 
0 0 0 
0 0 0 
0 0 0 
0 0 0 
0 0 0 
0 0 0 
0 0 0 
0 0 0 
0 0 0 
0 0 0 
0 0 0 
0 0 0 
0 0 0 
0 0 0 
0 0 0 
0 0 0 
0 0 0 
0 0 0 
0 0 0 
0 0 0 
0 0 0 
0 0 0 
0 0 0 
0 0 0 
0 0 0 
0 0 0 
0 0 0 
0 0 0 
0 0 0 
0 0 0 
0 0 0 
0 0 0 
0 0 0 
3 0 1 9 
3 0 8 9 
3 8 9 17 
3 8 16 17 
3 16 17 25 
3 16 24 25 
3 24 25 33 
3 24 32 33 
3 32 33 41 
3 32 40 41 
3 40 41 49 
3 40 48 49 
3 48 49 57 
3 48 56 57 
3 1 2 10 
3 1 9 10 
3 9 10 18 
3 9 17 18 
3 17 18 26 
3 17 25 26 
3 25 26 34 
3 25 33 34 
3 33 34 42 
3 33 41 42 
3 41 42 50 
3 41 49 50 
3 49 50 58 
3 49 57 58 
3 2 3 11 
3 2 10 11 
3 10 11 19 
3 10 18 19 
3 18 19 27 
3 18 26 27 
3 26 27 35 
3 26 34 35 
3 34 35 43 
3 34 42 43 
3 42 43 51 
3 42 50 51 
3 50 51 59 
3 50 58 59 
3 3 4 12 
3 3 11 12 
3 11 12 20 
3 11 19 20 
3 19 20 28 
3 19 27 28 
3 27 28 36 
3 27 35 36 
3 35 36 44 
3 35 43 44 
3 43 44 52 
3 43 51 52 
3 51 52 60 
3 51 59 60 
3 4 5 13 
3 4 12 13 
3 12 13 21 
3 12 20 21 
3 20 21 29 
3 20 28 29 
3 28 29 37 
3 28 36 37 
3 36 37 45 
3 36 44 45 
3 44 45 53 
3 44 52 53 
3 52 53 61 
3 52 60 61 
3 5 6 14 
3 5 13 14 
3 13 14 22 
3 13 21 22 
3 21 22 30 
3 21 29 30 
3 29 30 38 
3 29 37 38 
3 37 38 46 
3 37 45 46 
3 45 46 54 
3 45 53 54 
3 53 54 62 
3 53 61 62 
3 6 7 15 
3 6 14 15 
3 14 15 23 
3 14 22 23 
3 22 23 31 
3 22 30 31 
3 30 31 39 
3 30 38 39 
3 38 39 47 
3 38 46 47 
3 46 47 55 
3 46 54 55 
3 54 55 63 
3 54 62 63 
3 7 8 16 
3 7 15 16 
3 15 16 24 
3 15 23 24 
3 23 24 32 
3 23 31 32 
3 31 32 40 
3 31 39 40 
3 39 40 48 
3 39 47 48 
3 47 48 56 
3 47 55 56 
3 55 56 64 
3 55 63 64 
